<svg id="Laag_1" data-name="Laag 1" xmlns="http://www.w3.org/2000/svg" viewBox="0 0 319.92 283.47">
  <defs>
    <style>
      .cls-1 {
        fill: none;
        stroke: #000;
        stroke-miterlimit: 10;
      }
    </style>
  </defs>
  <title>VAS signature</title>
  <path class="cls-1" d="M191,114.36S125.72,28.46,61.33,84.18c-73.4,63.52-90.1,208.29,1,152.14C139.46,188.77,160.78,93.7,164.78,77.38,181.24,10.29,140.73-29,111.64,26,74.43,96.41,77.43,166,78.78,202.8c2.22,60.63,30.48,120.08,75,43.28,35.28-60.88,55.1-96.92,80.87-136.18,27-41.2,66.88-50.24,80.07-8.89,18.18,57-26.21,104.84-59.74,85.95C234.3,175.3,221.21,150.14,191,114.36Z" transform="translate(0.5 0.5)"/>
</svg>
